<?xml version="1.0" standalone="no"?>
<!DOCTYPE svg PUBLIC "-//W3C//DTD SVG 20010904//EN"
 "http://www.w3.org/TR/2001/REC-SVG-20010904/DTD/svg10.dtd">
<svg version="1.0" xmlns="http://www.w3.org/2000/svg"
 width="80" height="80" viewBox="0 0 2781.000000 2302.000000"
 preserveAspectRatio="xMidYMid meet">

<g transform="translate(0.000000,2302.000000) scale(0.100000,-0.100000)"
fill="#000000" stroke="none">
<path d="M14642 20223 c-74 -40 -161 -145 -247 -298 -42 -73 -110 -141 -172
-172 -77 -37 -173 -41 -323 -14 -154 28 -184 37 -219 66 -38 33 -55 78 -76
205 -21 130 -43 176 -93 197 -44 18 -105 12 -140 -14 -41 -30 -50 -75 -51
-233 -2 -222 -17 -243 -205 -281 -50 -10 -264 -43 -476 -74 -660 -96 -1034
-183 -1501 -348 -264 -94 -599 -247 -834 -381 -478 -275 -924 -656 -1283
-1099 -159 -195 -182 -204 -272 -108 -30 33 -80 103 -110 158 -101 180 -245
298 -412 338 -91 21 -282 19 -421 -5 -76 -13 -207 -49 -379 -105 -431 -142
-589 -176 -1013 -224 -213 -24 -744 -46 -900 -36 -164 9 -583 52 -794 81 -352
47 -676 105 -1466 259 -236 46 -567 109 -735 140 -345 63 -664 139 -1050 250
-146 42 -359 104 -475 137 -305 88 -394 89 -481 5 -57 -55 -73 -111 -55 -192
22 -99 250 -541 529 -1025 810 -1407 1528 -2465 2226 -3280 345 -402 881 -947
1112 -1132 237 -189 732 -471 880 -502 84 -17 150 -49 222 -105 28 -23 55 -41
60 -41 5 0 63 -23 128 -51 426 -184 916 -284 1564 -319 171 -9 1159 -40 1283
-40 69 0 73 -15 38 -152 -28 -111 -62 -191 -98 -234 -10 -11 -45 -41 -78 -66
-93 -70 -224 -213 -297 -323 -169 -255 -339 -650 -417 -966 -82 -335 -80 -689
7 -979 48 -163 47 -169 -67 -341 -48 -74 -120 -188 -158 -255 -114 -195 -339
-623 -372 -706 -118 -298 -112 -590 21 -1003 60 -188 59 -232 -15 -483 -81
-273 -146 -439 -259 -657 -399 -769 -615 -1302 -768 -1900 -108 -421 -134
-620 -135 -1020 0 -328 6 -394 52 -604 73 -336 293 -793 501 -1041 339 -406
816 -600 1597 -651 213 -14 422 -9 1060 26 952 52 1565 96 2350 170 661 62
759 68 1215 69 477 1 647 -14 1140 -101 273 -48 358 -19 443 153 43 85 58 99
111 99 34 0 64 -15 171 -81 247 -153 422 -238 673 -324 251 -87 510 -143 792
-171 159 -16 954 -16 1250 0 477 26 744 53 1320 136 790 115 1049 139 1485
138 174 0 356 -5 415 -12 282 -32 421 -24 560 32 114 47 173 91 355 267 385
374 482 505 563 760 53 166 66 256 66 455 1 239 -26 413 -118 770 -117 449
-260 837 -451 1214 -233 463 -461 788 -861 1230 -63 69 -117 140 -140 184 -37
67 -39 77 -39 157 0 124 19 159 233 438 232 302 276 586 138 904 -52 119 -110
215 -203 334 -126 161 -143 200 -153 349 -18 243 -67 377 -205 557 -146 190
-160 312 -54 470 60 90 67 122 78 353 35 737 -153 1178 -645 1512 -70 47 -126
94 -137 112 -15 25 -19 69 -27 263 -24 569 -36 617 -200 780 -81 80 -93 88
-159 108 -81 24 -100 45 -82 93 24 62 72 61 501 -17 365 -67 536 -94 695 -111
714 -76 1715 134 2487 521 757 380 1581 1075 2304 1944 137 165 529 662 746
945 481 630 865 1195 1163 1710 129 223 332 603 361 673 52 130 55 276 7 369
-30 58 -64 77 -141 81 -61 3 -91 -4 -342 -83 -151 -47 -412 -131 -579 -186
-1099 -362 -2068 -553 -3081 -610 -252 -14 -715 -6 -900 15 -615 72 -1231 250
-1825 529 -323 151 -440 193 -620 222 -168 28 -415 14 -565 -31 -190 -56 -356
-202 -475 -417 -39 -71 -57 -87 -100 -87 -43 0 -61 16 -141 123 -143 190 -490
515 -789 738 -526 392 -1105 686 -1835 934 -256 86 -300 108 -334 168 -35 61
-39 106 -21 204 9 47 13 98 10 114 -13 59 -94 99 -172 84 -53 -9 -116 -79
-179 -195 -27 -52 -62 -103 -77 -114 l-27 -20 -162 33 c-179 35 -243 58 -253
90 -9 28 28 105 100 210 69 100 103 171 111 233 8 58 -6 85 -59 109 -52 23
-83 24 -125 2z m-615 -793 c72 -43 83 -102 59 -326 -20 -186 -20 -245 -2 -289
30 -71 121 -93 175 -41 44 42 85 168 116 351 39 234 64 272 178 262 88 -8 217
-40 258 -63 23 -14 39 -33 49 -62 13 -39 13 -52 -8 -155 -42 -212 -26 -307 54
-307 86 0 171 94 203 224 22 88 75 136 151 136 16 0 125 -29 242 -64 728 -221
1114 -402 1608 -754 490 -349 887 -744 1193 -1186 229 -329 363 -610 476 -997
58 -196 134 -529 161 -706 24 -158 45 -194 105 -179 41 10 54 54 71 228 22
224 15 556 -15 723 -42 233 -97 401 -209 640 l-67 140 1 100 c0 83 5 111 27
167 55 142 163 264 284 320 128 60 292 47 418 -33 114 -72 248 -197 318 -295
54 -76 185 -196 264 -243 200 -119 443 -183 978 -260 1619 -232 3154 -54 4700
543 66 26 188 84 270 130 205 114 281 151 372 182 140 48 274 32 312 -37 13
-24 13 -32 -3 -73 -49 -127 -351 -368 -654 -520 -290 -145 -536 -229 -1180
-402 -525 -141 -772 -197 -1154 -263 -698 -122 -1341 -172 -2183 -172 -653 0
-954 15 -1379 67 -231 28 -296 30 -336 9 -49 -26 -53 -65 -19 -235 31 -159 31
-359 1 -483 -42 -168 -116 -298 -260 -451 -138 -148 -225 -284 -296 -463 -61
-153 -93 -274 -157 -583 -33 -162 -78 -368 -99 -456 -201 -839 -494 -1429
-919 -1853 -257 -257 -511 -420 -936 -601 -590 -252 -872 -319 -1280 -307
-259 8 -432 36 -621 100 -155 54 -215 47 -425 -46 -367 -163 -623 -225 -879
-214 -199 8 -373 53 -589 152 -133 61 -243 97 -351 116 -114 20 -332 15 -485
-10 -610 -102 -1097 -88 -1765 50 -408 85 -626 155 -887 288 -556 283 -986
750 -1303 1416 -215 451 -341 882 -440 1500 -69 434 -181 769 -357 1074 -168
291 -188 347 -188 531 0 107 5 143 32 255 56 226 86 452 72 553 -10 75 -37
130 -80 166 -88 75 -190 81 -569 35 l-275 -34 -575 0 c-606 0 -681 4 -1007 50
-454 65 -874 174 -1783 460 -726 228 -1301 396 -1877 548 -156 41 -312 88
-347 105 -75 35 -138 89 -170 146 -36 62 -39 91 -17 141 24 54 58 66 150 54
145 -20 265 -58 640 -204 871 -338 1667 -564 2803 -794 780 -158 1127 -204
1548 -204 254 0 376 10 570 49 336 67 580 190 801 404 214 207 466 307 642
256 118 -34 244 -160 322 -321 84 -172 93 -336 44 -755 -20 -172 -23 -243 -23
-600 -1 -278 3 -433 12 -493 14 -94 48 -217 60 -217 5 0 25 80 46 178 130 609
267 1019 458 1367 492 900 1118 1521 1923 1911 436 211 1079 426 1550 518 258
51 616 94 681 82 54 -11 64 -37 75 -191 14 -222 35 -326 75 -388 45 -69 150
-97 224 -59 56 27 64 65 54 267 -15 323 -10 349 76 393 61 30 218 32 267 2z
m-12344 -2016 c363 -109 609 -186 1152 -359 1439 -460 1994 -603 2621 -675
386 -43 836 -43 1230 1 164 18 201 20 262 9 125 -21 196 -87 227 -212 9 -36
15 -168 19 -403 3 -192 11 -415 16 -495 48 -691 181 -1199 461 -1759 147 -296
283 -515 509 -821 123 -167 200 -279 200 -291 0 -26 -27 -60 -55 -69 -26 -8
-54 -6 -136 11 -712 147 -1760 612 -2574 1144 -99 64 -175 131 -175 154 0 5
-10 11 -22 15 -13 3 -54 25 -91 50 -38 25 -77 48 -88 51 -22 7 -181 129 -409
313 -743 601 -1530 1327 -2309 2132 -498 514 -1060 1120 -1086 1169 -21 41
-31 111 -16 111 7 0 126 -34 264 -76z m24416 -781 c-655 -834 -1474 -1683
-2179 -2258 -482 -393 -1130 -832 -1655 -1120 -727 -399 -1491 -680 -2294
-845 -213 -43 -330 -58 -566 -70 -333 -16 -335 -16 -345 0 -21 33 -9 61 57
132 161 176 312 410 462 718 93 192 322 717 373 854 110 300 168 590 238 1201
41 360 56 417 137 506 70 78 124 86 295 44 396 -96 857 -107 1933 -44 950 55
1872 288 3250 824 160 62 297 115 305 118 40 14 38 2 -11 -60z m-7214 -4916
c69 -33 128 -87 145 -131 9 -24 26 -188 35 -341 7 -111 -8 -320 -31 -429 -52
-252 -164 -448 -373 -656 -341 -340 -762 -573 -1455 -806 -342 -116 -566 -170
-896 -218 -287 -42 -469 -57 -780 -63 -162 -3 -297 -9 -300 -14 -6 -9 -458 16
-495 27 -63 19 -68 59 -25 198 92 301 89 600 -11 912 -29 90 -35 137 -23 169
15 39 40 41 559 36 831 -6 975 -5 1090 8 556 63 985 226 1521 577 304 199 534
398 755 653 35 41 78 83 94 93 47 28 110 23 190 -15z m-9967 -84 c11 -10 75
-83 143 -163 308 -363 564 -590 848 -750 324 -183 986 -404 1446 -485 684
-119 1540 -92 2579 80 255 43 294 44 325 11 56 -60 74 -263 69 -781 -4 -340
-7 -408 -21 -452 -30 -90 -81 -116 -282 -148 -55 -9 -179 -31 -275 -50 -449
-86 -690 -110 -1140 -109 -359 1 -516 11 -815 55 -546 80 -1060 236 -1498 455
-532 267 -995 645 -1244 1017 -184 275 -273 632 -273 1095 0 216 8 239 86 241
18 1 41 -7 52 -16z m-374 -1152 c99 -48 141 -101 249 -317 216 -426 412 -744
579 -939 441 -514 1012 -785 1803 -856 189 -16 989 -23 1225 -10 503 28 956
86 1456 187 300 60 326 59 364 -15 48 -95 151 -851 215 -1571 81 -933 99
-1308 99 -2085 -1 -1412 -71 -2119 -289 -2900 -70 -250 -165 -527 -220 -642
-80 -164 -184 -242 -335 -251 -41 -2 -163 3 -270 12 -335 28 -561 36 -995 36
-458 0 -616 -5 -1560 -50 -346 -16 -751 -34 -900 -40 -148 -5 -349 -19 -445
-30 -324 -37 -423 -41 -695 -25 -809 49 -985 69 -1188 135 -431 142 -671 416
-811 925 -66 244 -86 384 -106 780 -36 698 28 1213 205 1645 80 196 220 474
250 498 54 43 67 36 235 -135 86 -87 202 -210 259 -273 128 -141 219 -223 336
-302 93 -62 350 -193 443 -225 48 -16 55 -16 80 -3 48 27 41 60 -26 132 -131
140 -669 748 -772 873 -131 160 -256 390 -325 600 -66 201 -117 503 -131 781
l-7 123 35 35 c61 61 149 58 182 -7 9 -18 22 -64 30 -103 20 -98 65 -203 135
-312 104 -160 185 -221 325 -244 76 -13 211 7 334 48 358 120 645 378 997 894
128 187 179 324 192 505 8 120 -9 230 -68 450 -137 513 -283 811 -521 1061
-117 123 -210 181 -418 263 -146 57 -220 103 -305 192 -105 110 -177 242 -221
404 -24 90 -30 302 -10 395 30 142 117 288 203 341 110 68 272 77 387 20z
m10950 -115 c88 -52 154 -146 229 -331 53 -128 90 -260 113 -400 23 -136 23
-415 0 -550 -28 -169 -44 -213 -95 -266 -43 -44 -52 -48 -146 -69 -487 -109
-825 -385 -1046 -855 -70 -150 -203 -506 -233 -624 -82 -328 -43 -650 120
-973 123 -245 347 -519 629 -770 214 -191 410 -240 630 -157 87 32 188 106
323 234 67 65 125 116 127 113 2 -2 15 -48 30 -102 74 -289 46 -505 -93 -701
-64 -90 -193 -224 -447 -463 -352 -330 -345 -323 -345 -369 0 -69 60 -133 124
-133 14 0 69 14 122 31 335 107 573 274 763 534 67 91 116 145 132 145 11 0
132 -167 183 -251 119 -198 241 -487 336 -804 118 -392 161 -604 180 -890 28
-421 -49 -917 -210 -1350 -101 -273 -199 -314 -795 -335 -154 -5 -361 -18
-460 -29 -99 -11 -358 -41 -575 -65 -1013 -116 -1270 -125 -1899 -71 -161 14
-426 30 -590 35 -687 23 -1077 73 -1533 196 -218 59 -361 131 -409 207 -16 25
-19 45 -16 88 3 52 11 68 94 195 346 527 526 1084 583 1798 13 166 13 655 0
861 -45 701 -159 1438 -366 2355 -118 521 -208 1011 -288 1572 -44 303 -45
330 -10 365 26 26 26 26 148 20 66 -3 211 -13 321 -21 748 -57 1406 -45 1960
35 468 67 842 221 1165 479 107 86 307 290 387 395 143 190 296 453 377 649
46 111 95 187 143 222 116 85 244 105 337 50z m-11454 -1611 c307 -65 584
-239 763 -480 127 -171 246 -472 269 -682 27 -235 -43 -481 -205 -723 -92
-138 -76 -144 -142 47 -78 227 -152 403 -262 625 -107 219 -151 286 -247 386
-134 139 -312 238 -563 311 -117 35 -163 91 -149 188 14 102 124 247 236 311
50 29 63 32 142 32 48 0 119 -7 158 -15z m11715 -384 c108 -54 268 -218 355
-366 47 -81 90 -208 90 -266 0 -47 -6 -54 -149 -169 -175 -141 -325 -310 -621
-700 -276 -364 -348 -442 -451 -494 -121 -60 -193 -9 -218 154 -21 142 -23
234 -6 365 61 479 216 876 478 1223 210 280 340 343 522 253z m-12049 -301
c109 -47 230 -220 264 -375 14 -62 4 -287 -16 -368 -42 -175 -139 -294 -269
-332 -27 -9 -90 -16 -138 -16 -112 0 -174 26 -242 104 -194 222 -206 599 -26
837 112 149 287 210 427 150z m12617 -723 c84 -38 147 -107 200 -218 63 -130
77 -191 84 -354 8 -228 -37 -370 -158 -500 -86 -91 -166 -130 -269 -130 -63 0
-85 5 -140 31 -120 58 -209 175 -262 344 -20 66 -23 95 -23 240 0 145 3 174
23 240 80 254 226 386 418 377 49 -3 87 -12 127 -30z m-12046 -214 c118 -58
218 -179 257 -312 20 -68 21 -222 2 -312 -20 -91 -78 -201 -137 -261 -173
-173 -429 -118 -544 116 -52 104 -68 197 -60 330 11 174 40 256 123 348 111
123 231 153 359 91z m11291 -559 c143 -71 233 -257 234 -484 0 -180 -47 -316
-143 -412 -166 -166 -367 -117 -479 117 -48 100 -63 173 -63 300 0 118 19 201
68 302 87 177 240 248 383 177z"/>
<path d="M12053 18445 c-223 -38 -352 -93 -454 -194 -66 -66 -85 -119 -74
-203 4 -29 12 -59 17 -65 21 -26 55 -14 99 35 165 182 338 253 584 238 149 -8
260 -44 381 -121 79 -51 98 -53 134 -17 55 56 35 116 -64 187 -116 82 -264
137 -418 153 -62 6 -104 4 -205 -13z"/>
<path d="M15705 18284 c-116 -21 -251 -61 -323 -96 -68 -34 -203 -152 -227
-199 -28 -54 -16 -102 34 -128 20 -11 33 -8 110 32 323 168 659 184 937 44 49
-25 117 -66 152 -91 84 -62 112 -67 152 -28 33 34 38 68 18 134 -41 137 -335
291 -645 337 -88 13 -107 13 -208 -5z"/>
<path d="M13965 17495 c-110 -17 -193 -40 -297 -82 -136 -54 -343 -190 -389
-255 -28 -39 -27 -93 2 -124 44 -47 68 -42 193 38 192 123 349 176 546 185
191 8 320 -19 537 -113 141 -61 182 -58 204 15 9 32 8 44 -6 75 -35 73 -281
216 -439 256 -92 23 -226 25 -351 5z"/>
<path d="M11130 17194 c-346 -30 -625 -99 -868 -215 -154 -73 -245 -133 -314
-207 -56 -61 -118 -166 -118 -200 0 -23 35 -52 63 -52 24 0 96 38 197 105 214
142 567 275 875 331 137 24 393 24 530 0 206 -37 438 -130 607 -243 215 -144
356 -292 501 -529 60 -97 101 -136 168 -159 85 -31 179 -8 207 48 17 34 1 70
-95 223 -262 416 -585 679 -1003 818 -190 63 -282 78 -505 81 -110 1 -220 1
-245 -1z"/>
<path d="M16530 17081 c-369 -80 -707 -219 -921 -380 -115 -86 -242 -215 -316
-318 -62 -87 -173 -283 -173 -306 0 -10 13 -32 29 -48 75 -75 212 1 338 189
134 201 290 325 599 480 261 131 433 176 669 175 117 0 173 -5 255 -23 220
-47 446 -139 635 -260 190 -121 217 -129 266 -81 40 40 39 78 -3 117 -51 47
-205 157 -293 210 -255 151 -564 239 -900 258 -76 4 -121 1 -185 -13z"/>
<path d="M10825 16395 c-382 -67 -681 -244 -1037 -614 -355 -368 -635 -820
-869 -1403 -33 -80 -59 -161 -59 -180 0 -18 11 -51 24 -72 52 -87 369 -319
583 -429 497 -254 1085 -362 1968 -361 459 1 710 23 952 84 326 82 605 255
653 404 34 106 -37 576 -137 905 -118 393 -274 727 -445 955 -258 345 -648
596 -1083 697 -119 27 -430 35 -550 14z m-90 -564 c71 -33 135 -94 167 -159
19 -40 23 -63 23 -147 0 -89 -3 -106 -28 -157 -59 -120 -159 -188 -287 -196
-60 -3 -86 0 -132 18 -75 28 -155 101 -199 182 -32 58 -34 69 -34 153 0 75 4
97 24 135 97 185 287 254 466 171z m-1205 -1314 c21 -209 98 -424 203 -563 48
-63 60 -110 32 -120 -28 -11 -148 19 -219 54 -87 44 -153 108 -192 187 -27 56
-29 67 -28 175 0 113 1 117 48 235 47 119 78 178 120 223 l21 24 2 -54 c2 -29
7 -101 13 -161z"/>
<path d="M16615 16240 c-433 -49 -839 -255 -1186 -600 -179 -178 -306 -348
-427 -572 -119 -220 -258 -596 -338 -913 -42 -168 -42 -193 5 -266 51 -81 421
-304 635 -384 331 -122 687 -170 1276 -170 398 0 430 3 692 61 442 98 775 245
1039 460 96 78 252 243 299 315 43 66 80 170 80 223 0 64 -33 155 -120 331
-225 459 -444 778 -725 1061 -341 343 -568 447 -995 459 -85 2 -191 0 -235 -5z
m-200 -522 c62 -32 129 -102 157 -166 17 -37 22 -68 22 -142 1 -84 -2 -102
-28 -157 -33 -72 -95 -135 -164 -166 -72 -31 -191 -35 -264 -7 -76 28 -159
104 -195 178 -24 50 -28 69 -28 147 0 78 4 97 27 141 35 67 70 108 124 145 72
49 109 59 209 56 73 -3 99 -8 140 -29z m1748 -941 c100 -150 148 -272 166
-416 14 -106 6 -138 -59 -234 -86 -129 -239 -257 -307 -257 -19 0 -53 23 -53
36 0 2 15 35 34 72 69 136 87 235 106 556 6 98 17 212 25 255 8 42 15 77 15
79 0 13 27 -21 73 -91z"/>
<path d="M13640 14280 c-69 -3 -135 -11 -147 -18 -42 -24 -42 -99 0 -126 20
-13 34 -12 142 16 107 27 136 31 265 31 123 0 156 -4 215 -23 39 -12 89 -24
112 -27 36 -4 43 -2 58 20 20 31 11 72 -19 92 -40 27 -395 47 -626 35z"/>
<path d="M13740 14030 c-88 -14 -210 -56 -279 -97 -89 -52 -181 -145 -217
-218 -40 -83 -41 -184 -2 -268 98 -209 415 -355 722 -333 123 8 204 30 314 82
241 116 344 336 251 533 -13 25 -54 78 -93 117 -125 125 -280 182 -511 189
-71 2 -155 0 -185 -5z m453 -239 c180 -64 251 -155 217 -279 -26 -100 -180
-183 -381 -207 -162 -20 -382 73 -439 186 -53 102 5 205 157 283 79 40 116 46
258 42 99 -3 144 -9 188 -25z"/>
<path d="M13701 12799 c-98 -12 -194 -38 -371 -104 -244 -89 -403 -125 -559
-125 -103 0 -110 1 -511 85 -173 35 -326 65 -339 65 -13 0 -38 -15 -58 -35
-43 -43 -40 -65 16 -140 21 -27 92 -126 158 -220 180 -254 285 -385 423 -528
316 -327 640 -520 1046 -623 137 -34 352 -64 466 -64 165 0 406 50 584 121
268 106 503 261 924 608 245 202 552 543 613 680 35 80 8 157 -68 195 -38 19
-38 19 -114 -4 -42 -12 -87 -25 -101 -27 -14 -3 -74 -25 -133 -50 -392 -162
-771 -147 -1303 53 -166 62 -307 99 -439 114 -101 11 -129 11 -234 -1z m414
-783 c101 -23 217 -63 315 -108 130 -60 182 -120 182 -208 0 -119 -114 -217
-298 -255 -121 -25 -357 -36 -531 -25 -300 19 -454 51 -611 128 -92 44 -124
83 -130 156 -8 102 51 172 189 226 92 36 275 84 372 99 94 15 428 6 512 -13z"/>
</g>
</svg>
